solid OpenSCAD_Model
  facet normal 0 0 -1
    outer loop
      vertex 124.834 95.0015 14.4
      vertex 124.931 95.0436 14.4
      vertex 124.88 95.0133 14.4
    endloop
  endfacet
  facet normal 0 0 -1
    outer loop
      vertex 124.987 95.1201 14.4
      vertex 125 95.19 14.4
      vertex 124.998 95.1662 14.4
    endloop
  endfacet
  facet normal -0 0 -1
    outer loop
      vertex 124.964 95.0783 14.4
      vertex 124.931 95.0436 14.4
      vertex 124.987 95.1201 14.4
    endloop
  endfacet
  facet normal -0 0 -1
    outer loop
      vertex 124.987 95.1201 14.4
      vertex 124.931 95.0436 14.4
      vertex 125 95.19 14.4
    endloop
  endfacet
  facet normal 0 0 -1
    outer loop
      vertex 125 95.19 14.4
      vertex 124.931 95.0436 14.4
      vertex 124.834 95.0015 14.4
    endloop
  endfacet
  facet normal 0 0 -1
    outer loop
      vertex 124.998 104.834 14.4
      vertex 124.81 105 14.4
      vertex 124.956 104.931 14.4
    endloop
  endfacet
  facet normal -0 -0 -1
    outer loop
      vertex 124.987 104.88 14.4
      vertex 124.998 104.834 14.4
      vertex 124.956 104.931 14.4
    endloop
  endfacet
  facet normal 0 0 -1
    outer loop
      vertex 124.956 104.931 14.4
      vertex 124.88 104.987 14.4
      vertex 124.922 104.964 14.4
    endloop
  endfacet
  facet normal 0 0 -1
    outer loop
      vertex 124.81 105 14.4
      vertex 124.834 104.998 14.4
      vertex 124.88 104.987 14.4
    endloop
  endfacet
  facet normal 0 0 -1
    outer loop
      vertex 124.956 104.931 14.4
      vertex 124.81 105 14.4
      vertex 124.88 104.987 14.4
    endloop
  endfacet
  facet normal -0 -0 -1
    outer loop
      vertex 124.998 104.834 14.4
      vertex 125 95.19 14.4
      vertex 124.81 105 14.4
    endloop
  endfacet
  facet normal 0 0 -1
    outer loop
      vertex 124.81 105 14.4
      vertex 125 95.19 14.4
      vertex 124.834 95.0015 14.4
    endloop
  endfacet
  facet normal 0 0 -1
    outer loop
      vertex 75.19 95 14.4
      vertex 124.81 105 14.4
      vertex 124.834 95.0015 14.4
    endloop
  endfacet
  facet normal 0 0 -1
    outer loop
      vertex 75.19 95 14.4
      vertex 75.1662 104.998 14.4
      vertex 124.81 105 14.4
    endloop
  endfacet
  facet normal 0 -0 -1
    outer loop
      vertex 75.0689 104.956 14.4
      vertex 75.1201 104.987 14.4
      vertex 75.0363 104.922 14.4
    endloop
  endfacet
  facet normal 0 -0 -1
    outer loop
      vertex 75.0363 104.922 14.4
      vertex 75.1201 104.987 14.4
      vertex 75.0133 104.88 14.4
    endloop
  endfacet
  facet normal 0 0 -1
    outer loop
      vertex 75.0133 104.88 14.4
      vertex 75.1201 104.987 14.4
      vertex 75.1662 104.998 14.4
    endloop
  endfacet
  facet normal 0 -0 -1
    outer loop
      vertex 75.0015 104.834 14.4
      vertex 75.0133 104.88 14.4
      vertex 75 104.81 14.4
    endloop
  endfacet
  facet normal 0 0 -1
    outer loop
      vertex 75 104.81 14.4
      vertex 75.0133 104.88 14.4
      vertex 75.1662 104.998 14.4
    endloop
  endfacet
  facet normal 0 0 -1
    outer loop
      vertex 75 95.25 14.4
      vertex 75 104.81 14.4
      vertex 75.1662 104.998 14.4
    endloop
  endfacet
  facet normal 0 0 -1
    outer loop
      vertex 75.19 95 14.4
      vertex 75 95.25 14.4
      vertex 75.1662 104.998 14.4
    endloop
  endfacet
  facet normal 0 0 -1
    outer loop
      vertex 75.19 95 14.4
      vertex 75.0027 95.2201 14.4
      vertex 75 95.25 14.4
    endloop
  endfacet
  facet normal 0 0 -1
    outer loop
      vertex 75.19 95 14.4
      vertex 75.1662 95.0015 14.4
      vertex 75.0027 95.2201 14.4
    endloop
  endfacet
  facet normal 0 0 -1
    outer loop
      vertex 75.0027 95.2201 14.4
      vertex 75.0004 95.1781 14.4
      vertex 75.0004 95.2019 14.4
    endloop
  endfacet
  facet normal 0 -0 -1
    outer loop
      vertex 75.0027 95.2201 14.4
      vertex 75.0034 95.1544 14.4
      vertex 75.0004 95.1781 14.4
    endloop
  endfacet
  facet normal 0 0 -1
    outer loop
      vertex 75.0027 95.2201 14.4
      vertex 75.0093 95.1313 14.4
      vertex 75.0034 95.1544 14.4
    endloop
  endfacet
  facet normal 0 0 -1
    outer loop
      vertex 75.0027 95.2201 14.4
      vertex 75.0181 95.1091 14.4
      vertex 75.0093 95.1313 14.4
    endloop
  endfacet
  facet normal 0 0 -1
    outer loop
      vertex 75.0027 95.2201 14.4
      vertex 75.0296 95.0882 14.4
      vertex 75.0181 95.1091 14.4
    endloop
  endfacet
  facet normal 0 0 -1
    outer loop
      vertex 75.0027 95.2201 14.4
      vertex 75.0436 95.0689 14.4
      vertex 75.0296 95.0882 14.4
    endloop
  endfacet
  facet normal 0 0 -1
    outer loop
      vertex 75.0027 95.2201 14.4
      vertex 75.0599 95.0515 14.4
      vertex 75.0436 95.0689 14.4
    endloop
  endfacet
  facet normal 0 0 -1
    outer loop
      vertex 75.0985 95.0235 14.4
      vertex 75.0783 95.0363 14.4
      vertex 75.0599 95.0515 14.4
    endloop
  endfacet
  facet normal 0 0 -1
    outer loop
      vertex 75.0027 95.2201 14.4
      vertex 75.0985 95.0235 14.4
      vertex 75.0599 95.0515 14.4
    endloop
  endfacet
  facet normal 0 0 -1
    outer loop
      vertex 75.0027 95.2201 14.4
      vertex 75.1201 95.0133 14.4
      vertex 75.0985 95.0235 14.4
    endloop
  endfacet
  facet normal 0 0 -1
    outer loop
      vertex 75.0027 95.2201 14.4
      vertex 75.1427 95.006 14.4
      vertex 75.1201 95.0133 14.4
    endloop
  endfacet
  facet normal 0 0 -1
    outer loop
      vertex 75.0027 95.2201 14.4
      vertex 75.1662 95.0015 14.4
      vertex 75.1427 95.006 14.4
    endloop
  endfacet
  facet normal 0 -0 1
    outer loop
      vertex 124.88 95.0133 14.804
      vertex 124.931 95.0436 14.804
      vertex 124.834 95.0015 14.804
    endloop
  endfacet
  facet normal 0 -0 1
    outer loop
      vertex 124.998 95.1662 14.804
      vertex 125 95.19 14.804
      vertex 124.987 95.1201 14.804
    endloop
  endfacet
  facet normal 0 0 1
    outer loop
      vertex 124.987 95.1201 14.804
      vertex 124.931 95.0436 14.804
      vertex 124.964 95.0783 14.804
    endloop
  endfacet
  facet normal 0 0 1
    outer loop
      vertex 125 95.19 14.804
      vertex 124.931 95.0436 14.804
      vertex 124.987 95.1201 14.804
    endloop
  endfacet
  facet normal 0 0 1
    outer loop
      vertex 124.834 95.0015 14.804
      vertex 124.931 95.0436 14.804
      vertex 125 95.19 14.804
    endloop
  endfacet
  facet normal 0 0 1
    outer loop
      vertex 124.956 104.931 14.804
      vertex 124.81 105 14.804
      vertex 124.998 104.834 14.804
    endloop
  endfacet
  facet normal 0 0 1
    outer loop
      vertex 124.956 104.931 14.804
      vertex 124.998 104.834 14.804
      vertex 124.987 104.88 14.804
    endloop
  endfacet
  facet normal 0 0 1
    outer loop
      vertex 124.922 104.964 14.804
      vertex 124.88 104.987 14.804
      vertex 124.956 104.931 14.804
    endloop
  endfacet
  facet normal 0 0 1
    outer loop
      vertex 124.88 104.987 14.804
      vertex 124.834 104.998 14.804
      vertex 124.81 105 14.804
    endloop
  endfacet
  facet normal 0 0 1
    outer loop
      vertex 124.88 104.987 14.804
      vertex 124.81 105 14.804
      vertex 124.956 104.931 14.804
    endloop
  endfacet
  facet normal 0 0 1
    outer loop
      vertex 124.81 105 14.804
      vertex 125 95.19 14.804
      vertex 124.998 104.834 14.804
    endloop
  endfacet
  facet normal 0 -0 1
    outer loop
      vertex 124.834 95.0015 14.804
      vertex 125 95.19 14.804
      vertex 124.81 105 14.804
    endloop
  endfacet
  facet normal 0 0 1
    outer loop
      vertex 124.834 95.0015 14.804
      vertex 124.81 105 14.804
      vertex 75.19 95 14.804
    endloop
  endfacet
  facet normal 0 0 1
    outer loop
      vertex 124.81 105 14.804
      vertex 75.1662 104.998 14.804
      vertex 75.19 95 14.804
    endloop
  endfacet
  facet normal 0 0 1
    outer loop
      vertex 75.0363 104.922 14.804
      vertex 75.1201 104.987 14.804
      vertex 75.0689 104.956 14.804
    endloop
  endfacet
  facet normal 0 0 1
    outer loop
      vertex 75.0133 104.88 14.804
      vertex 75.1201 104.987 14.804
      vertex 75.0363 104.922 14.804
    endloop
  endfacet
  facet normal 0 0 1
    outer loop
      vertex 75.1662 104.998 14.804
      vertex 75.1201 104.987 14.804
      vertex 75.0133 104.88 14.804
    endloop
  endfacet
  facet normal 0 0 1
    outer loop
      vertex 75 104.81 14.804
      vertex 75.0133 104.88 14.804
      vertex 75.0015 104.834 14.804
    endloop
  endfacet
  facet normal 0 0 1
    outer loop
      vertex 75.1662 104.998 14.804
      vertex 75.0133 104.88 14.804
      vertex 75 104.81 14.804
    endloop
  endfacet
  facet normal 0 0 1
    outer loop
      vertex 75.1662 104.998 14.804
      vertex 75 104.81 14.804
      vertex 75 95.25 14.804
    endloop
  endfacet
  facet normal 0 0 1
    outer loop
      vertex 75.1662 104.998 14.804
      vertex 75 95.25 14.804
      vertex 75.19 95 14.804
    endloop
  endfacet
  facet normal 0 0 1
    outer loop
      vertex 75 95.25 14.804
      vertex 75.0027 95.2201 14.804
      vertex 75.19 95 14.804
    endloop
  endfacet
  facet normal 0 0 1
    outer loop
      vertex 75.0027 95.2201 14.804
      vertex 75.1662 95.0015 14.804
      vertex 75.19 95 14.804
    endloop
  endfacet
  facet normal -0 0 1
    outer loop
      vertex 75.0004 95.2019 14.804
      vertex 75.0004 95.1781 14.804
      vertex 75.0027 95.2201 14.804
    endloop
  endfacet
  facet normal -0 0 1
    outer loop
      vertex 75.0004 95.1781 14.804
      vertex 75.0034 95.1544 14.804
      vertex 75.0027 95.2201 14.804
    endloop
  endfacet
  facet normal -0 -0 1
    outer loop
      vertex 75.0034 95.1544 14.804
      vertex 75.0093 95.1313 14.804
      vertex 75.0027 95.2201 14.804
    endloop
  endfacet
  facet normal -0 -0 1
    outer loop
      vertex 75.0093 95.1313 14.804
      vertex 75.0181 95.1091 14.804
      vertex 75.0027 95.2201 14.804
    endloop
  endfacet
  facet normal -0 -0 1
    outer loop
      vertex 75.0181 95.1091 14.804
      vertex 75.0296 95.0882 14.804
      vertex 75.0027 95.2201 14.804
    endloop
  endfacet
  facet normal -0 -0 1
    outer loop
      vertex 75.0296 95.0882 14.804
      vertex 75.0436 95.0689 14.804
      vertex 75.0027 95.2201 14.804
    endloop
  endfacet
  facet normal -0 -0 1
    outer loop
      vertex 75.0436 95.0689 14.804
      vertex 75.0599 95.0515 14.804
      vertex 75.0027 95.2201 14.804
    endloop
  endfacet
  facet normal 0 0 1
    outer loop
      vertex 75.0599 95.0515 14.804
      vertex 75.0783 95.0363 14.804
      vertex 75.0985 95.0235 14.804
    endloop
  endfacet
  facet normal -0 -0 1
    outer loop
      vertex 75.0599 95.0515 14.804
      vertex 75.0985 95.0235 14.804
      vertex 75.0027 95.2201 14.804
    endloop
  endfacet
  facet normal -0 -0 1
    outer loop
      vertex 75.0985 95.0235 14.804
      vertex 75.1201 95.0133 14.804
      vertex 75.0027 95.2201 14.804
    endloop
  endfacet
  facet normal -0 -0 1
    outer loop
      vertex 75.1201 95.0133 14.804
      vertex 75.1427 95.006 14.804
      vertex 75.0027 95.2201 14.804
    endloop
  endfacet
  facet normal -0 -0 1
    outer loop
      vertex 75.1427 95.006 14.804
      vertex 75.1662 95.0015 14.804
      vertex 75.0027 95.2201 14.804
    endloop
  endfacet
  facet normal 3.01218e-05 -1 0
    outer loop
      vertex 124.834 95.0015 14.4
      vertex 75.19 95 14.804
      vertex 75.19 95 14.4
    endloop
  endfacet
  facet normal 3.01218e-05 -1 0
    outer loop
      vertex 124.834 95.0015 14.4
      vertex 124.834 95.0015 14.804
      vertex 75.19 95 14.804
    endloop
  endfacet
  facet normal 0.24856 -0.968616 0
    outer loop
      vertex 124.88 95.0133 14.4
      vertex 124.834 95.0015 14.804
      vertex 124.834 95.0015 14.4
    endloop
  endfacet
  facet normal 0.24856 -0.968616 0
    outer loop
      vertex 124.88 95.0133 14.4
      vertex 124.88 95.0133 14.804
      vertex 124.834 95.0015 14.804
    endloop
  endfacet
  facet normal 0.509049 -0.860737 0
    outer loop
      vertex 124.931 95.0436 14.4
      vertex 124.88 95.0133 14.804
      vertex 124.88 95.0133 14.4
    endloop
  endfacet
  facet normal 0.509049 -0.860737 0
    outer loop
      vertex 124.931 95.0436 14.4
      vertex 124.931 95.0436 14.804
      vertex 124.88 95.0133 14.804
    endloop
  endfacet
  facet normal 0.728867 -0.684655 0
    outer loop
      vertex 124.964 95.0783 14.4
      vertex 124.931 95.0436 14.804
      vertex 124.931 95.0436 14.4
    endloop
  endfacet
  facet normal 0.728867 -0.684655 0
    outer loop
      vertex 124.964 95.0783 14.4
      vertex 124.964 95.0783 14.804
      vertex 124.931 95.0436 14.804
    endloop
  endfacet
  facet normal 0.876324 -0.481722 0
    outer loop
      vertex 124.987 95.1201 14.4
      vertex 124.964 95.0783 14.804
      vertex 124.964 95.0783 14.4
    endloop
  endfacet
  facet normal 0.876324 -0.481722 0
    outer loop
      vertex 124.987 95.1201 14.4
      vertex 124.987 95.1201 14.804
      vertex 124.964 95.0783 14.804
    endloop
  endfacet
  facet normal 0.968597 -0.248637 0
    outer loop
      vertex 124.998 95.1662 14.4
      vertex 124.987 95.1201 14.804
      vertex 124.987 95.1201 14.4
    endloop
  endfacet
  facet normal 0.968597 -0.248637 0
    outer loop
      vertex 124.998 95.1662 14.4
      vertex 124.998 95.1662 14.804
      vertex 124.987 95.1201 14.804
    endloop
  endfacet
  facet normal 0.998033 -0.0626969 0
    outer loop
      vertex 125 95.19 14.4
      vertex 124.998 95.1662 14.804
      vertex 124.998 95.1662 14.4
    endloop
  endfacet
  facet normal 0.998033 -0.0626969 0
    outer loop
      vertex 125 95.19 14.4
      vertex 125 95.19 14.804
      vertex 124.998 95.1662 14.804
    endloop
  endfacet
  facet normal 1 0.000155059 0
    outer loop
      vertex 124.998 104.834 14.4
      vertex 125 95.19 14.804
      vertex 125 95.19 14.4
    endloop
  endfacet
  facet normal 1 0.000155059 -0
    outer loop
      vertex 124.998 104.834 14.4
      vertex 124.998 104.834 14.804
      vertex 125 95.19 14.804
    endloop
  endfacet
  facet normal 0.968616 0.24856 0
    outer loop
      vertex 124.987 104.88 14.4
      vertex 124.998 104.834 14.804
      vertex 124.998 104.834 14.4
    endloop
  endfacet
  facet normal 0.968616 0.24856 -0
    outer loop
      vertex 124.987 104.88 14.4
      vertex 124.987 104.88 14.804
      vertex 124.998 104.834 14.804
    endloop
  endfacet
  facet normal 0.860737 0.509049 0
    outer loop
      vertex 124.956 104.931 14.4
      vertex 124.987 104.88 14.804
      vertex 124.987 104.88 14.4
    endloop
  endfacet
  facet normal 0.860737 0.509049 -0
    outer loop
      vertex 124.956 104.931 14.4
      vertex 124.956 104.931 14.804
      vertex 124.987 104.88 14.804
    endloop
  endfacet
  facet normal 0.684655 0.728867 0
    outer loop
      vertex 124.922 104.964 14.4
      vertex 124.956 104.931 14.804
      vertex 124.956 104.931 14.4
    endloop
  endfacet
  facet normal 0.684655 0.728867 -0
    outer loop
      vertex 124.922 104.964 14.4
      vertex 124.922 104.964 14.804
      vertex 124.956 104.931 14.804
    endloop
  endfacet
  facet normal 0.481722 0.876324 0
    outer loop
      vertex 124.88 104.987 14.4
      vertex 124.922 104.964 14.804
      vertex 124.922 104.964 14.4
    endloop
  endfacet
  facet normal 0.481722 0.876324 -0
    outer loop
      vertex 124.88 104.987 14.4
      vertex 124.88 104.987 14.804
      vertex 124.922 104.964 14.804
    endloop
  endfacet
  facet normal 0.248637 0.968597 0
    outer loop
      vertex 124.834 104.998 14.4
      vertex 124.88 104.987 14.804
      vertex 124.88 104.987 14.4
    endloop
  endfacet
  facet normal 0.248637 0.968597 -0
    outer loop
      vertex 124.834 104.998 14.4
      vertex 124.834 104.998 14.804
      vertex 124.88 104.987 14.804
    endloop
  endfacet
  facet normal 0.0626969 0.998033 0
    outer loop
      vertex 124.81 105 14.4
      vertex 124.834 104.998 14.804
      vertex 124.834 104.998 14.4
    endloop
  endfacet
  facet normal 0.0626969 0.998033 -0
    outer loop
      vertex 124.81 105 14.4
      vertex 124.81 105 14.804
      vertex 124.834 104.998 14.804
    endloop
  endfacet
  facet normal -3.01218e-05 1 0
    outer loop
      vertex 75.1662 104.998 14.4
      vertex 124.81 105 14.804
      vertex 124.81 105 14.4
    endloop
  endfacet
  facet normal -3.01218e-05 1 0
    outer loop
      vertex 75.1662 104.998 14.4
      vertex 75.1662 104.998 14.804
      vertex 124.81 105 14.804
    endloop
  endfacet
  facet normal -0.24856 0.968616 0
    outer loop
      vertex 75.1201 104.987 14.4
      vertex 75.1662 104.998 14.804
      vertex 75.1662 104.998 14.4
    endloop
  endfacet
  facet normal -0.24856 0.968616 0
    outer loop
      vertex 75.1201 104.987 14.4
      vertex 75.1201 104.987 14.804
      vertex 75.1662 104.998 14.804
    endloop
  endfacet
  facet normal -0.508937 0.860804 0
    outer loop
      vertex 75.0689 104.956 14.4
      vertex 75.1201 104.987 14.804
      vertex 75.1201 104.987 14.4
    endloop
  endfacet
  facet normal -0.508937 0.860804 0
    outer loop
      vertex 75.0689 104.956 14.4
      vertex 75.0689 104.956 14.804
      vertex 75.1201 104.987 14.804
    endloop
  endfacet
  facet normal -0.729027 0.684485 0
    outer loop
      vertex 75.0363 104.922 14.4
      vertex 75.0689 104.956 14.804
      vertex 75.0689 104.956 14.4
    endloop
  endfacet
  facet normal -0.729027 0.684485 0
    outer loop
      vertex 75.0363 104.922 14.4
      vertex 75.0363 104.922 14.804
      vertex 75.0689 104.956 14.804
    endloop
  endfacet
  facet normal -0.876324 0.481722 0
    outer loop
      vertex 75.0133 104.88 14.4
      vertex 75.0363 104.922 14.804
      vertex 75.0363 104.922 14.4
    endloop
  endfacet
  facet normal -0.876324 0.481722 0
    outer loop
      vertex 75.0133 104.88 14.4
      vertex 75.0133 104.88 14.804
      vertex 75.0363 104.922 14.804
    endloop
  endfacet
  facet normal -0.968597 0.248637 0
    outer loop
      vertex 75.0015 104.834 14.4
      vertex 75.0133 104.88 14.804
      vertex 75.0133 104.88 14.4
    endloop
  endfacet
  facet normal -0.968597 0.248637 0
    outer loop
      vertex 75.0015 104.834 14.4
      vertex 75.0015 104.834 14.804
      vertex 75.0133 104.88 14.804
    endloop
  endfacet
  facet normal -0.998033 0.0626969 0
    outer loop
      vertex 75 104.81 14.4
      vertex 75.0015 104.834 14.804
      vertex 75.0015 104.834 14.4
    endloop
  endfacet
  facet normal -0.998033 0.0626969 0
    outer loop
      vertex 75 104.81 14.4
      vertex 75 104.81 14.804
      vertex 75.0015 104.834 14.804
    endloop
  endfacet
  facet normal -1 0 0
    outer loop
      vertex 75 95.25 14.4
      vertex 75 104.81 14.804
      vertex 75 104.81 14.4
    endloop
  endfacet
  facet normal -1 0 0
    outer loop
      vertex 75 95.25 14.4
      vertex 75 95.25 14.804
      vertex 75 104.81 14.804
    endloop
  endfacet
  facet normal -0.996083 -0.0884277 0
    outer loop
      vertex 75.0027 95.2201 14.4
      vertex 75 95.25 14.804
      vertex 75 95.25 14.4
    endloop
  endfacet
  facet normal -0.996083 -0.0884277 0
    outer loop
      vertex 75.0027 95.2201 14.4
      vertex 75.0027 95.2201 14.804
      vertex 75 95.25 14.804
    endloop
  endfacet
  facet normal -0.992162 0.124957 0
    outer loop
      vertex 75.0004 95.2019 14.4
      vertex 75.0027 95.2201 14.804
      vertex 75.0027 95.2201 14.4
    endloop
  endfacet
  facet normal -0.992162 0.124957 0
    outer loop
      vertex 75.0004 95.2019 14.4
      vertex 75.0004 95.2019 14.804
      vertex 75.0027 95.2201 14.804
    endloop
  endfacet
  facet normal -1 0 0
    outer loop
      vertex 75.0004 95.1781 14.4
      vertex 75.0004 95.2019 14.804
      vertex 75.0004 95.2019 14.4
    endloop
  endfacet
  facet normal -1 0 0
    outer loop
      vertex 75.0004 95.1781 14.4
      vertex 75.0004 95.1781 14.804
      vertex 75.0004 95.2019 14.804
    endloop
  endfacet
  facet normal -0.99212 -0.125293 0
    outer loop
      vertex 75.0034 95.1544 14.4
      vertex 75.0004 95.1781 14.804
      vertex 75.0004 95.1781 14.4
    endloop
  endfacet
  facet normal -0.99212 -0.125293 0
    outer loop
      vertex 75.0034 95.1544 14.4
      vertex 75.0034 95.1544 14.804
      vertex 75.0004 95.1781 14.804
    endloop
  endfacet
  facet normal -0.968541 -0.248852 0
    outer loop
      vertex 75.0093 95.1313 14.4
      vertex 75.0034 95.1544 14.804
      vertex 75.0034 95.1544 14.4
    endloop
  endfacet
  facet normal -0.968541 -0.248852 0
    outer loop
      vertex 75.0093 95.1313 14.4
      vertex 75.0093 95.1313 14.804
      vertex 75.0034 95.1544 14.804
    endloop
  endfacet
  facet normal -0.929706 -0.368302 0
    outer loop
      vertex 75.0181 95.1091 14.4
      vertex 75.0093 95.1313 14.804
      vertex 75.0093 95.1313 14.4
    endloop
  endfacet
  facet normal -0.929706 -0.368302 0
    outer loop
      vertex 75.0181 95.1091 14.4
      vertex 75.0181 95.1091 14.804
      vertex 75.0093 95.1313 14.804
    endloop
  endfacet
  facet normal -0.876351 -0.481673 0
    outer loop
      vertex 75.0296 95.0882 14.4
      vertex 75.0181 95.1091 14.804
      vertex 75.0181 95.1091 14.4
    endloop
  endfacet
  facet normal -0.876351 -0.481673 0
    outer loop
      vertex 75.0296 95.0882 14.4
      vertex 75.0296 95.0882 14.804
      vertex 75.0181 95.1091 14.804
    endloop
  endfacet
  facet normal -0.80904 -0.587753 0
    outer loop
      vertex 75.0436 95.0689 14.4
      vertex 75.0296 95.0882 14.804
      vertex 75.0296 95.0882 14.4
    endloop
  endfacet
  facet normal -0.80904 -0.587753 0
    outer loop
      vertex 75.0436 95.0689 14.4
      vertex 75.0436 95.0689 14.804
      vertex 75.0296 95.0882 14.804
    endloop
  endfacet
  facet normal -0.728819 -0.684706 0
    outer loop
      vertex 75.0599 95.0515 14.4
      vertex 75.0436 95.0689 14.804
      vertex 75.0436 95.0689 14.4
    endloop
  endfacet
  facet normal -0.728819 -0.684706 0
    outer loop
      vertex 75.0599 95.0515 14.4
      vertex 75.0599 95.0515 14.804
      vertex 75.0436 95.0689 14.804
    endloop
  endfacet
  facet normal -0.63779 -0.77021 0
    outer loop
      vertex 75.0783 95.0363 14.4
      vertex 75.0599 95.0515 14.804
      vertex 75.0599 95.0515 14.4
    endloop
  endfacet
  facet normal -0.63779 -0.77021 0
    outer loop
      vertex 75.0783 95.0363 14.4
      vertex 75.0783 95.0363 14.804
      vertex 75.0599 95.0515 14.804
    endloop
  endfacet
  facet normal -0.535675 -0.844424 0
    outer loop
      vertex 75.0985 95.0235 14.4
      vertex 75.0783 95.0363 14.804
      vertex 75.0783 95.0363 14.4
    endloop
  endfacet
  facet normal -0.535675 -0.844424 0
    outer loop
      vertex 75.0985 95.0235 14.4
      vertex 75.0985 95.0235 14.804
      vertex 75.0783 95.0363 14.804
    endloop
  endfacet
  facet normal -0.425859 -0.90479 0
    outer loop
      vertex 75.1201 95.0133 14.4
      vertex 75.0985 95.0235 14.804
      vertex 75.0985 95.0235 14.4
    endloop
  endfacet
  facet normal -0.425859 -0.90479 0
    outer loop
      vertex 75.1201 95.0133 14.4
      vertex 75.1201 95.0133 14.804
      vertex 75.0985 95.0235 14.804
    endloop
  endfacet
  facet normal -0.308927 -0.951086 0
    outer loop
      vertex 75.1427 95.006 14.4
      vertex 75.1201 95.0133 14.804
      vertex 75.1201 95.0133 14.4
    endloop
  endfacet
  facet normal -0.308927 -0.951086 0
    outer loop
      vertex 75.1427 95.006 14.4
      vertex 75.1427 95.006 14.804
      vertex 75.1201 95.0133 14.804
    endloop
  endfacet
  facet normal -0.187377 -0.982288 0
    outer loop
      vertex 75.1662 95.0015 14.4
      vertex 75.1427 95.006 14.804
      vertex 75.1427 95.006 14.4
    endloop
  endfacet
  facet normal -0.187377 -0.982288 0
    outer loop
      vertex 75.1662 95.0015 14.4
      vertex 75.1662 95.0015 14.804
      vertex 75.1427 95.006 14.804
    endloop
  endfacet
  facet normal -0.0626969 -0.998033 0
    outer loop
      vertex 75.19 95 14.4
      vertex 75.1662 95.0015 14.804
      vertex 75.1662 95.0015 14.4
    endloop
  endfacet
  facet normal -0.0626969 -0.998033 0
    outer loop
      vertex 75.19 95 14.4
      vertex 75.19 95 14.804
      vertex 75.1662 95.0015 14.804
    endloop
  endfacet
endsolid OpenSCAD_Model
